<?xml version="1.0" standalone="no"?>
<!DOCTYPE svg PUBLIC "-//W3C//DTD SVG 20010904//EN"
 "http://www.w3.org/TR/2001/REC-SVG-20010904/DTD/svg10.dtd">
<svg version="1.0" xmlns="http://www.w3.org/2000/svg"
 width="1000.000000pt" height="1000.000000pt" viewBox="0 0 1000.000000 1000.000000"
 preserveAspectRatio="xMidYMid meet">
<metadata>
Created by potrace 1.14, written by Peter Selinger 2001-2017
</metadata>
<g transform="translate(0.000000,1000.000000) scale(0.100000,-0.100000)"
fill="#000000" stroke="none">
<path d="M2489 9186 c-2 -3 -42 -7 -89 -11 -47 -3 -92 -8 -100 -10 -8 -2 -40
-7 -70 -10 -30 -4 -96 -15 -146 -25 -639 -131 -1145 -454 -1534 -979 -34 -47
-69 -99 -76 -117 -47 -111 38 -236 157 -230 69 4 96 24 173 130 141 193 239
296 438 462 59 49 223 152 338 213 141 74 421 170 569 196 14 2 67 11 116 20
233 40 630 40 885 -1 19 -3 49 -8 65 -10 98 -16 210 -38 279 -55 44 -11 97
-18 117 -16 92 10 155 90 145 181 -9 79 -60 130 -151 151 -204 47 -390 79
-518 91 -34 3 -73 7 -87 10 -30 6 -505 15 -511 10z"/>
<path d="M7088 9185 c-2 -2 -39 -6 -83 -10 -44 -3 -91 -8 -105 -10 -14 -2 -52
-7 -85 -11 -33 -4 -62 -8 -65 -9 -3 0 -26 -4 -51 -8 -70 -12 -88 -15 -189 -37
-52 -12 -112 -25 -132 -29 -85 -19 -144 -97 -134 -178 7 -62 34 -103 86 -131
44 -23 80 -25 155 -8 151 34 217 47 310 61 61 9 121 18 135 21 143 24 623 23
750 -1 13 -3 65 -12 115 -20 459 -80 881 -302 1190 -626 91 -96 122 -133 211
-255 41 -56 85 -106 101 -113 80 -37 175 -10 218 64 50 85 25 160 -112 330
-199 247 -434 459 -664 597 -266 161 -607 287 -899 332 -19 3 -44 8 -55 10
-12 2 -45 7 -75 10 -30 4 -73 9 -95 12 -42 6 -522 14 -527 9z"/>
<path d="M2418 8465 c-2 -2 -25 -6 -53 -9 -132 -17 -302 -67 -432 -127 -68
-31 -235 -129 -253 -149 -3 -3 -27 -23 -55 -44 -114 -89 -317 -323 -360 -413
-29 -60 -17 -130 30 -178 33 -32 65 -45 113 -45 54 0 102 30 144 91 233 335
530 516 913 558 94 10 281 6 385 -9 126 -19 164 -17 204 10 70 48 91 127 53
201 -31 61 -71 81 -207 100 -98 14 -470 25 -482 14z"/>
<path d="M7209 8466 c-2 -2 -34 -6 -71 -10 -97 -9 -169 -26 -201 -48 -59 -42
-78 -125 -45 -195 35 -75 97 -98 218 -79 178 28 446 26 548 -3 18 -5 35 -10
37 -10 18 -1 82 -15 90 -20 6 -3 15 -6 20 -7 26 -4 168 -68 221 -100 151 -91
296 -227 401 -375 62 -89 90 -111 154 -117 57 -5 106 16 140 61 19 25 24 44
24 92 0 55 -4 66 -44 125 -25 36 -50 70 -55 76 -6 6 -24 29 -41 50 -56 74
-212 219 -306 286 -147 105 -375 209 -511 233 -17 3 -34 7 -37 9 -3 2 -24 7
-46 11 -22 3 -51 9 -65 11 -30 6 -426 15 -431 10z"/>
<path d="M3000 7497 c-3 -3 -34 -7 -70 -11 -432 -42 -819 -228 -1119 -535
-232 -238 -401 -547 -492 -899 -16 -64 -32 -128 -33 -142 -6 -43 -18 -114 -23
-140 -3 -14 -6 -119 -8 -235 -4 -297 19 -455 112 -750 180 -570 603 -1251
1176 -1890 103 -115 179 -199 206 -226 14 -14 69 -71 122 -125 131 -134 354
-350 468 -454 52 -47 99 -90 105 -96 6 -5 49 -43 96 -84 47 -41 87 -77 90 -80
3 -3 48 -41 100 -85 52 -44 97 -82 100 -85 28 -31 326 -266 560 -443 96 -72
177 -134 180 -137 15 -17 125 -83 167 -101 172 -74 384 -68 552 14 146 71 962
716 1286 1017 28 26 84 78 125 116 120 111 293 279 424 413 188 193 177 181
359 385 16 17 38 42 51 56 40 45 211 254 261 320 28 36 52 67 55 70 60 59 450
648 450 680 0 4 3 10 8 12 23 10 262 513 262 551 0 7 4 17 9 23 24 24 127 387
145 509 3 22 9 63 13 90 10 68 10 435 0 515 -18 144 -21 156 -57 302 -127 507
-431 932 -844 1180 -115 70 -305 157 -376 173 -8 2 -48 13 -88 25 -166 47
-304 63 -537 64 -196 1 -318 -5 -395 -19 -14 -2 -52 -9 -85 -14 -86 -14 -96
-17 -193 -48 -101 -32 -277 -119 -383 -189 -246 -162 -557 -464 -739 -718 -18
-25 -36 -46 -40 -46 -3 0 -28 30 -56 67 -91 125 -194 243 -329 377 -322 320
-684 524 -995 561 -30 4 -75 10 -100 15 -60 10 -46 10 -295 16 -122 2 -223 3
-225 1z"/>
</g>
</svg>
